<svg width="47" height="35" viewBox="0 0 47 35" fill="none" xmlns="http://www.w3.org/2000/svg">
<path d="M35.8063 31.2073C34.969 31.2073 34.166 30.8747 33.5739 30.2826C32.9818 29.6906 32.6492 28.8875 32.6492 28.0502C32.6492 27.2129 32.9818 26.4099 33.5739 25.8178C34.166 25.2257 34.969 24.8931 35.8063 24.8931C36.6436 24.8931 37.4466 25.2257 38.0387 25.8178C38.6308 26.4099 38.9634 27.2129 38.9634 28.0502C38.9634 28.8875 38.6308 29.6906 38.0387 30.2826C37.4466 30.8747 36.6436 31.2073 35.8063 31.2073ZM38.9634 12.2647L43.0887 17.5266H33.7016V12.2647M10.5495 31.2073C9.71222 31.2073 8.9092 30.8747 8.31713 30.2826C7.72506 29.6906 7.39244 28.8875 7.39244 28.0502C7.39244 27.2129 7.72506 26.4099 8.31713 25.8178C8.9092 25.2257 9.71222 24.8931 10.5495 24.8931C11.3868 24.8931 12.1899 25.2257 12.7819 25.8178C13.374 26.4099 13.7066 27.2129 13.7066 28.0502C13.7066 28.8875 13.374 29.6906 12.7819 30.2826C12.1899 30.8747 11.3868 31.2073 10.5495 31.2073ZM40.0158 9.10765H33.7016V0.688721H4.23534C1.89909 0.688721 0.0258789 2.56193 0.0258789 4.89818V28.0502H4.23534C4.23534 29.7249 4.90058 31.3309 6.08472 32.515C7.26886 33.6992 8.8749 34.3644 10.5495 34.3644C12.2242 34.3644 13.8302 33.6992 15.0143 32.515C16.1985 31.3309 16.8637 29.7249 16.8637 28.0502H29.4921C29.4921 29.7249 30.1573 31.3309 31.3415 32.515C32.5256 33.6992 34.1317 34.3644 35.8063 34.3644C37.4809 34.3644 39.087 33.6992 40.2711 32.515C41.4552 31.3309 42.1205 29.7249 42.1205 28.0502H46.3299V17.5266L40.0158 9.10765Z" fill="#E15929"/>
</svg>
