<svg width="49" height="43" viewBox="0 0 49 43" fill="none" xmlns="http://www.w3.org/2000/svg">
<path d="M17.1572 42.4235H14.4939C14.2263 42.4234 13.963 42.3563 13.728 42.2281C13.4931 42.1 13.294 41.9151 13.149 41.6901C13.004 41.4652 12.9177 41.2075 12.898 40.9407C12.8783 40.6738 12.9258 40.4062 13.0362 40.1624L19.4853 25.9305L9.8016 25.7154L6.26988 29.9945C5.59655 30.8409 5.05929 31.2181 3.68862 31.2181H1.89575C1.61188 31.2272 1.32999 31.1678 1.07397 31.0448C0.817957 30.9219 0.595353 30.739 0.425027 30.5117C0.186911 30.1906 -0.0472029 29.6463 0.180908 28.8699L2.16388 21.7665C2.17888 21.7134 2.19689 21.6604 2.2169 21.6084C2.2179 21.6034 2.2179 21.5983 2.2169 21.5934C2.19624 21.5414 2.17854 21.4883 2.16388 21.4343L0.178907 14.2858C-0.0361976 13.5244 0.198917 12.9922 0.435032 12.679C0.593585 12.4686 0.799291 12.2984 1.03561 12.182C1.27193 12.0655 1.53227 12.0062 1.7957 12.0087H3.68862C4.71212 12.0087 5.7056 12.4679 6.28989 13.2093L9.74858 17.4163L19.4853 17.2723L13.0382 3.06533C12.9276 2.82166 12.8799 2.55417 12.8994 2.28731C12.919 2.02045 13.005 1.76274 13.1498 1.53774C13.2946 1.31273 13.4935 1.12761 13.7283 0.999296C13.9631 0.870982 14.2263 0.80357 14.4939 0.803223H17.1862C17.5618 0.810771 17.9309 0.902833 18.266 1.07257C18.6012 1.24231 18.8938 1.48537 19.1221 1.7837L31.6332 16.9911L37.4131 16.839C37.8363 16.816 39.0088 16.808 39.28 16.808C44.8087 16.811 48.1103 18.6059 48.1103 21.6134C48.1103 22.5598 47.7321 24.3147 45.2019 25.4312C43.7081 26.0916 41.7152 26.4257 39.278 26.4257C39.0098 26.4257 37.8403 26.4177 37.4111 26.3947L31.6322 26.2406L19.0901 41.4481C18.8616 41.7451 18.5692 41.9869 18.2347 42.1558C17.9001 42.3246 17.5319 42.4161 17.1572 42.4235Z" fill="#E15929"/>
</svg>
