<svg width="40" height="34" viewBox="0 0 40 34" fill="none" xmlns="http://www.w3.org/2000/svg">
<path d="M14.9037 0.854736L1.09591 33.4846H5.99612L16.0351 0.854736H14.9037ZM23.2825 0.854736L33.3174 33.4846H38.2201L24.4139 0.854736H23.2825ZM16.773 3.47824L16.5188 4.29808H22.7988L22.5447 3.47824H16.773ZM10.2224 6.42968L9.86169 7.57746H10.452L10.9357 6.42968H10.2224ZM15.863 6.42968L15.5104 7.57746H23.8072L23.4547 6.42968H15.863ZM28.382 6.42968L28.8657 7.57746H29.5052L29.1444 6.42968H28.382ZM7.74649 10.5289L7.24638 12.0046H8.58273L9.20581 10.5289H7.74649ZM14.6004 10.5289L14.1495 12.0046H25.1682L24.7173 10.5289H14.6004ZM30.1118 10.5289L30.7349 12.0046H32.0877L31.604 10.5289H30.1118ZM4.80981 15.6119L4.22772 17.7435H6.15189L7.04962 15.6119H4.80981ZM13.0345 15.6119L12.3786 17.7435H26.939L26.2832 15.6119H13.0345ZM32.268 15.6119L33.1699 17.7435H35.0883L34.5062 15.6119H32.268ZM2.1986 21.8428L1.58372 24.3023H3.37754L4.41792 21.8428H2.1986ZM11.1242 21.8428L10.3618 24.3023H28.9559L28.1934 21.8428H11.1242ZM34.8997 21.8428L35.9409 24.3023H37.7364L37.1215 21.8428H34.8997ZM0.228516 29.7133V31.7465L1.08853 29.7133H0.228516ZM8.69751 29.7133L7.53333 33.4846H31.7843L30.6202 29.7133H8.69751ZM38.2283 29.7133L39.0891 31.7465V29.7133H38.2283Z" fill="#E15929"/>
</svg>
