<svg width="43" height="43" viewBox="0 0 43 43" fill="none" xmlns="http://www.w3.org/2000/svg">
<path d="M14.8568 0.210449C14.4382 0.210449 14.0367 0.37676 13.7406 0.672795C13.4446 0.96883 13.2783 1.37034 13.2783 1.789V6.52464H8.54264C8.12399 6.52464 7.72248 6.69095 7.42644 6.98699C7.1304 7.28302 6.96409 7.68453 6.96409 8.10319V18.1301L3.89119 19.2562C3.686 19.3311 3.49861 19.4479 3.34087 19.599C3.18313 19.7501 3.05847 19.9324 2.97479 20.1341C2.8911 20.3359 2.85021 20.5529 2.85471 20.7713C2.8592 20.9897 2.90898 21.2048 3.00089 21.403L7.91543 31.9666C8.38001 31.8129 8.87056 31.7534 9.35841 31.7915C9.84626 31.8297 10.3216 31.9647 10.7567 32.1887C11.1917 32.4127 11.5778 32.7212 11.8922 33.0961C12.2066 33.471 12.4431 33.9049 12.5879 34.3723C12.5879 34.3808 12.5964 34.3997 12.6069 34.4292C12.801 34.949 13.0666 35.4392 13.3962 35.8856C13.9771 36.6581 14.5832 37.0432 15.383 37.0432C16.1828 37.0432 16.789 36.6602 17.3678 35.8856C17.7086 35.4235 17.9808 34.9145 18.176 34.3744C18.4083 33.6238 18.8745 32.9672 19.5066 32.5004C20.1386 32.0336 20.9034 31.7812 21.6891 31.7801C22.4749 31.7789 23.2404 32.029 23.8738 32.4939C24.5073 32.9587 24.9755 33.614 25.21 34.3639L25.2311 34.4228C25.4273 34.9443 25.695 35.4359 26.0266 35.8835C26.6096 36.6623 27.2179 37.0432 28.0114 37.0432C28.8049 37.0432 29.411 36.6602 29.9962 35.8856C30.3383 35.4214 30.612 34.9103 30.8086 34.3681C30.9584 33.8881 31.2048 33.4438 31.5328 33.0626C31.8608 32.6815 32.2634 32.3715 32.7157 32.1518C33.1681 31.9322 33.6606 31.8074 34.163 31.7854C34.6654 31.7633 35.167 31.8443 35.6368 32.0235L40.8313 21.4346C40.9294 21.2349 40.9841 21.0168 40.992 20.7946C40.9999 20.5723 40.9607 20.3509 40.8771 20.1448C40.7934 19.9387 40.6672 19.7527 40.5066 19.5988C40.346 19.4449 40.1547 19.3267 39.9452 19.2519L36.4303 17.9975V8.10319C36.4303 7.68453 36.264 7.28302 35.968 6.98699C35.6719 6.69095 35.2704 6.52464 34.8518 6.52464H30.1161V1.789C30.1161 1.37034 29.9498 0.96883 29.6538 0.672795C29.3577 0.37676 28.9562 0.210449 28.5376 0.210449H14.8568ZM26.959 6.52464H16.4354V3.36755H26.959V6.52464ZM33.2732 9.68174V16.8715L24.0187 13.5692C22.5134 13.0326 20.8677 13.0401 19.3673 13.5902L10.1212 16.9725V9.68174H33.2732ZM35.8557 35.0732L35.8494 35.0522C35.7598 34.7218 35.5651 34.4295 35.2949 34.2194C35.0247 34.0093 34.6934 33.8927 34.3512 33.8873C34.0089 33.8818 33.6741 33.9877 33.3973 34.1891C33.1205 34.3905 32.9167 34.6764 32.8165 35.0037V35.008L32.8081 35.0269L32.766 35.149C32.4991 35.8633 32.1327 36.5364 31.6778 37.1485C30.8633 38.2324 29.7015 39.148 28.0114 39.148C26.3213 39.148 25.1574 38.2324 24.3429 37.1485C23.8618 36.5009 23.4802 35.7851 23.2105 35.0248L23.2042 35.0059C23.1054 34.6822 22.9053 34.3988 22.6332 34.1976C22.3612 33.9963 22.0317 33.8878 21.6933 33.888C21.3549 33.8882 21.0255 33.9972 20.7537 34.1989C20.482 34.4005 20.2822 34.6842 20.1839 35.008L20.1755 35.0311C20.1043 35.2382 20.0235 35.4419 19.9334 35.6415C19.7461 36.0582 19.4557 36.6097 19.0495 37.1485C18.2391 38.2324 17.0794 39.148 15.383 39.148C13.6866 39.148 12.5248 38.2324 11.7124 37.1485C11.2335 36.5021 10.8539 35.7877 10.5863 35.029L10.58 35.0059C10.4805 34.6783 10.2773 34.3921 10.0009 34.1901C9.72451 33.9882 9.38999 33.8816 9.04773 33.8863C8.70548 33.8911 8.37404 34.0069 8.10338 34.2165C7.83271 34.426 7.63748 34.7178 7.5471 35.048L7.54079 35.0669L7.50291 35.1805C7.25519 35.8799 6.89706 36.535 6.44212 37.1211C5.6339 38.1524 4.34581 39.148 2.22845 39.148C1.80979 39.148 1.40828 39.3143 1.11225 39.6103C0.816213 39.9063 0.649902 40.3079 0.649902 40.7265C0.649902 41.1452 0.816213 41.5467 1.11225 41.8427C1.40828 42.1388 1.80979 42.3051 2.22845 42.3051C5.5413 42.3051 7.67339 40.6697 8.92781 39.0701L9.06882 38.8828L9.18669 39.0427C10.3485 40.5897 12.3438 42.3051 15.383 42.3051C18.4222 42.3051 20.4175 40.5897 21.5772 39.0427L21.6972 38.8786L21.8193 39.0448C22.9811 40.5897 24.9764 42.3051 28.0114 42.3051C31.0464 42.3051 33.0417 40.5897 34.2035 39.0427L34.3193 38.8849C34.3635 38.948 34.4098 39.0069 34.4582 39.068C35.7105 40.6697 37.8468 42.3051 41.166 42.3051C41.5846 42.3051 41.9861 42.1388 42.2822 41.8427C42.5782 41.5467 42.7445 41.1452 42.7445 40.7265C42.7445 40.3079 42.5782 39.9063 42.2822 39.6103C41.9861 39.3143 41.5846 39.148 41.166 39.148C39.036 39.148 37.75 38.1524 36.946 37.1232C36.469 36.5066 36.1003 35.8134 35.8557 35.0732Z" fill="#E15929"/>
</svg>
