<svg width="13" height="18" viewBox="0 0 13 18" fill="none" xmlns="http://www.w3.org/2000/svg">
<path d="M6.47088 8.66181C5.90087 8.66181 5.35422 8.43537 4.95116 8.03232C4.54811 7.62927 4.32168 7.08261 4.32168 6.51261C4.32168 5.94261 4.54811 5.39595 4.95116 4.9929C5.35422 4.58984 5.90087 4.36341 6.47088 4.36341C7.04088 4.36341 7.58753 4.58984 7.99059 4.9929C8.39364 5.39595 8.62007 5.94261 8.62007 6.51261C8.62007 6.79485 8.56448 7.07432 8.45648 7.33507C8.34847 7.59582 8.19016 7.83275 7.99059 8.03232C7.79102 8.23189 7.55409 8.3902 7.29334 8.49821C7.03259 8.60622 6.75311 8.66181 6.47088 8.66181ZM6.47088 0.494858C4.87487 0.494858 3.34423 1.12887 2.21568 2.25742C1.08714 3.38596 0.453125 4.9166 0.453125 6.51261C0.453125 11.0259 6.47088 17.6884 6.47088 17.6884C6.47088 17.6884 12.4886 11.0259 12.4886 6.51261C12.4886 4.9166 11.8546 3.38596 10.7261 2.25742C9.59752 1.12887 8.06688 0.494858 6.47088 0.494858Z" fill="#FF5A30"/>
</svg>
