<svg width="145" height="109" viewBox="0 0 145 109" fill="none" xmlns="http://www.w3.org/2000/svg">
<path d="M3.27712 0.242638C1.71781 0.242638 0.453125 1.60234 0.453125 3.27781V105.349C0.453125 107.025 1.71781 108.383 3.27712 108.384H141.344C142.903 108.384 144.168 107.025 144.168 105.349V3.27781C144.168 1.60234 142.903 0.24408 141.344 0.242638H3.27712ZM35.4807 6.31731H53.2797C57.8642 7.9279 62.5924 9.44621 67.325 10.8376C77.7586 13.9031 88.063 16.3976 96.0736 18.1278C98.6231 18.6786 100.826 19.1184 102.844 19.5077C101.463 20.9986 100.108 22.4852 98.7237 23.9689L97.2046 25.5968C87.8733 22.6654 77.1981 19.7485 63.4691 16.8604C53.7827 14.8245 44.4456 11.1448 35.4807 6.31731ZM60.0271 6.31731H80.7982C86.4156 7.78578 92.0623 9.13856 97.735 10.3748C101.658 11.2226 105.007 11.8787 107.485 12.3156C108.483 12.495 109.485 12.6565 110.49 12.8C111.237 12.9024 111.856 12.9226 111.632 12.9298L111.641 13.1576C113.699 10.8931 115.74 8.61295 117.763 6.31731H125.426C119.003 13.7575 111.754 21.6071 104.495 29.3904C90.4141 44.4856 76.606 59.2159 70.8302 68.1441C72.5085 70.6271 73.4047 73.5588 73.4026 76.5589C73.4026 79.1442 72.7459 81.5825 71.5904 83.715C77.4784 88.3334 81.8761 95.0425 85.8584 102.31H79.1972C75.7711 96.47 72.1423 91.4334 67.9415 88.1676C66.0277 89.7671 63.746 90.862 61.3036 91.3527C58.8612 91.8435 56.3354 91.7146 53.9552 90.9778C52.5879 94.8275 51.0384 98.6096 49.3118 102.311H42.9452C45.1397 97.7792 47.1417 93.1277 48.8318 88.2065C45.4746 85.4337 43.3275 81.2364 43.3275 76.5589C43.3275 72.5909 44.8839 68.9775 47.4032 66.2768C38.9097 47.2295 23.5682 37.439 6.10254 27.0358V20.2964C24.6302 31.262 42.3114 41.6926 52.1659 62.835C54.4806 61.7665 57.03 61.3127 59.5697 61.5169C62.1094 61.7212 64.5542 62.5767 66.6696 64.0015C73.3811 54.0323 86.6962 40.0243 100.295 25.4469C102.577 23 104.829 20.5473 107.092 18.0932C106.865 18.0557 106.729 18.0384 106.486 17.9952C103.154 17.3957 99.8328 16.7347 96.5249 16.0126C88.5588 14.2924 78.2976 11.808 67.93 8.76132C65.2843 7.98251 62.6508 7.16777 60.0271 6.31731ZM89.7042 6.31731H114.85C113.564 7.76497 112.306 9.19677 110.967 10.6733C110.895 10.6661 110.856 10.6675 110.783 10.6574C109.805 10.517 108.829 10.3593 107.857 10.1845C105.418 9.75334 102.09 9.10305 98.1905 8.26098C95.3556 7.64265 92.5257 6.99473 89.7042 6.31731ZM128.286 6.31731H138.518V12.64C138.458 12.6357 138.4 12.6227 138.34 12.6227H138.321C137.654 12.6252 137.016 12.8934 136.546 13.3684C136.076 13.8433 135.813 14.4862 135.816 15.1554C135.818 15.8246 136.086 16.4654 136.559 16.9369C137.032 17.4083 137.673 17.6718 138.34 17.6693C138.4 17.6693 138.458 17.6563 138.517 17.652V22.7332C138.459 22.7289 138.402 22.7159 138.34 22.7159H138.321C137.654 22.7184 137.016 22.9866 136.546 23.4616C136.076 23.9366 135.813 24.5794 135.816 25.2486C135.818 25.9178 136.086 26.5586 136.559 27.0301C137.032 27.5016 137.673 27.765 138.34 27.7625C138.4 27.7625 138.458 27.7495 138.517 27.7452V32.8264C138.459 32.8221 138.402 32.8091 138.34 32.8091C137.673 32.8091 137.033 33.075 136.562 33.5482C136.09 34.0214 135.825 34.6632 135.825 35.3324C135.825 36.0017 136.09 36.6435 136.562 37.1167C137.033 37.5899 137.673 37.8557 138.34 37.8557C138.4 37.8557 138.458 37.8428 138.517 37.8384V39.7057C137.38 39.3438 136.22 38.9819 135.112 38.6185C134.829 38.3274 134.48 38.1092 134.095 37.9827C133.709 37.8561 133.299 37.825 132.899 37.8918C131.978 37.5847 131.093 37.279 130.191 36.9719C130.458 36.659 130.645 36.2854 130.734 35.8837C130.824 35.482 130.814 35.0644 130.706 34.6672C130.598 34.2701 130.395 33.9055 130.114 33.6053C129.833 33.3051 129.484 33.0783 129.096 32.9448C128.707 32.8114 128.293 32.7752 127.887 32.8395C127.482 32.9038 127.099 33.0666 126.77 33.3137C126.442 33.5608 126.179 33.8848 126.005 34.2573C125.83 34.6297 125.749 35.0395 125.768 35.4507C123.719 34.7312 121.712 34.0117 119.7 33.2936C119.305 33.0045 118.835 32.8371 118.346 32.812C117.326 32.4472 116.287 32.081 115.262 31.7162C115.638 31.1696 115.784 30.4965 115.668 29.8427C115.552 29.189 115.185 28.6074 114.644 28.2239L112.351 30.6896C110.846 30.1561 109.248 29.6254 107.709 29.0948C114.894 21.3865 122.013 13.658 128.286 6.31731ZM135.558 8.97039C133.896 9.38277 132.487 10.1066 131.048 11.1981C131.188 11.5048 131.388 11.7803 131.636 12.0082C131.884 12.2361 132.174 12.4118 132.491 12.5249C132.808 12.6381 133.144 12.6864 133.48 12.6669C133.815 12.6475 134.144 12.5607 134.445 12.4117C134.747 12.2628 135.016 12.0546 135.236 11.7996C135.456 11.5446 135.623 11.2479 135.727 10.9271C135.831 10.6063 135.869 10.2678 135.841 9.93171C135.812 9.59563 135.715 9.26874 135.558 8.97039ZM129.204 12.8C128.08 13.856 126.993 14.9511 125.945 16.0832C126.099 16.4714 126.348 16.815 126.667 17.0831C126.987 17.3512 127.368 17.5354 127.776 17.6191C128.185 17.7028 128.607 17.6834 129.006 17.5627C129.405 17.442 129.768 17.2238 130.062 16.9276C130.356 16.6314 130.572 16.2665 130.691 15.8658C130.81 15.4651 130.827 15.041 130.742 14.6318C130.657 14.2225 130.472 13.8409 130.204 13.5212C129.935 13.2014 129.592 12.9536 129.204 12.8ZM6.10398 15.6694C32.1379 33.0225 53.8661 40.1815 79.7735 44.4567C74.3052 50.5559 69.5137 56.2225 66.0172 61.1509C63.6462 59.9424 61.0252 59.3102 58.3658 59.3053C56.5823 59.3053 54.8577 59.585 53.2352 60.1012C42.7239 39.116 24.544 28.6825 6.10398 17.7731V15.6694ZM133.291 17.6693C132.961 17.6719 132.635 17.7397 132.33 17.8688C132.026 17.998 131.75 18.186 131.519 18.4221C131.051 18.899 130.791 19.5429 130.796 20.2121C130.801 20.8813 131.071 21.5211 131.546 21.9906C132.021 22.4602 132.663 22.7211 133.33 22.7159C133.997 22.7108 134.635 22.44 135.103 21.9631C135.571 21.4862 135.831 20.8424 135.826 20.1731C135.821 19.5039 135.551 18.8642 135.075 18.3946C134.6 17.925 133.958 17.6641 133.291 17.6693ZM124.266 17.8827L121.024 21.3663C121.211 21.7226 121.48 22.0287 121.809 22.2593C122.138 22.4898 122.517 22.638 122.915 22.6915C123.313 22.745 123.718 22.7022 124.096 22.5667C124.473 22.4312 124.814 22.207 125.087 21.9127C125.361 21.6184 125.561 21.2626 125.67 20.8751C125.779 20.4876 125.794 20.0795 125.713 19.6851C125.633 19.2906 125.46 18.9212 125.208 18.6076C124.956 18.2941 124.633 18.0455 124.266 17.8827ZM128.261 22.7159C127.931 22.7185 127.605 22.7863 127.3 22.9154C126.996 23.0446 126.72 23.2326 126.489 23.4687C126.257 23.7049 126.074 23.9845 125.95 24.2916C125.826 24.5987 125.763 24.9273 125.766 25.2587C125.768 25.5901 125.836 25.9177 125.965 26.2228C126.093 26.528 126.281 26.8047 126.516 27.0372C126.751 27.2697 127.03 27.4535 127.336 27.5779C127.642 27.7023 127.97 27.7651 128.3 27.7625C128.967 27.7574 129.605 27.4866 130.073 27.0097C130.541 26.5328 130.801 25.889 130.796 25.2198C130.791 24.5505 130.521 23.9108 130.045 23.4412C129.57 22.9717 128.928 22.7108 128.261 22.7159ZM119.465 23.0447L116.126 26.6335C116.336 26.9511 116.615 27.2168 116.942 27.4107C117.269 27.6046 117.636 27.7216 118.014 27.753C118.393 27.7844 118.774 27.7294 119.128 27.592C119.482 27.4547 119.801 27.2386 120.06 26.96C120.319 26.6813 120.512 26.3474 120.625 25.9833C120.737 25.6192 120.765 25.2343 120.708 24.8575C120.651 24.4808 120.509 24.1219 120.294 23.808C120.078 23.494 119.795 23.233 119.465 23.0447ZM123.23 27.7625C122.563 27.7679 121.925 28.0389 121.457 28.5159C120.99 28.9929 120.73 29.6368 120.735 30.306C120.74 30.9752 121.01 31.6149 121.486 32.0844C121.961 32.5538 122.603 32.8145 123.27 32.8091C123.937 32.804 124.575 32.5332 125.043 32.0563C125.511 31.5795 125.771 30.9356 125.766 30.2664C125.761 29.5971 125.491 28.9574 125.015 28.4878C124.54 28.0183 123.897 27.7574 123.23 27.7625ZM133.29 27.7625C132.623 27.7679 131.985 28.0389 131.517 28.5159C131.05 28.9929 130.79 29.6368 130.795 30.306C130.8 30.9752 131.07 31.6149 131.546 32.0844C132.021 32.5538 132.663 32.8145 133.33 32.8091C133.997 32.804 134.635 32.5332 135.103 32.0563C135.571 31.5795 135.831 30.9356 135.826 30.2664C135.821 29.5971 135.551 28.9574 135.075 28.4878C134.6 28.0183 133.957 27.7574 133.29 27.7625ZM6.10254 29.562C22.5981 39.4245 36.7439 48.7002 44.8782 65.9308C42.5687 68.8693 41.1732 72.5591 41.1732 76.5575C41.1732 81.3417 43.1593 85.689 46.3354 88.8265C44.6626 93.504 42.6995 97.9537 40.5524 102.31H34.3324L38.2845 95.4434L34.0852 93.0109L35.5813 90.4083L29.7651 87.04L20.977 102.31H6.10254V51.8911L17.1456 58.4978L24.0123 46.9454L6.10398 36.2293L6.10254 29.562ZM91.8211 46.2922C95.1553 46.8474 98.3889 47.6217 101.493 48.556C101.154 48.8472 100.897 49.2239 100.751 49.6473C100.605 50.0707 100.573 50.5256 100.66 50.9652C100.747 51.4048 100.949 51.8132 101.246 52.1485C101.542 52.4837 101.922 52.7337 102.347 52.8728C102.771 53.0119 103.225 53.035 103.662 52.9397C104.098 52.8444 104.502 52.6343 104.83 52.3308C105.159 52.0273 105.401 51.6415 105.532 51.213C105.663 50.7845 105.678 50.3287 105.575 49.8926C107.542 50.5891 109.441 51.3345 111.28 52.1131C111.53 52.4057 111.843 52.6371 112.195 52.7896C112.548 52.942 112.93 53.0115 113.314 52.9927C114.246 53.4108 115.147 53.8348 116.04 54.2616C115.87 54.5597 115.763 54.8893 115.725 55.2304C115.687 55.5715 115.718 55.9169 115.818 56.2453C115.917 56.5737 116.082 56.8784 116.303 57.1406C116.523 57.4029 116.795 57.6171 117.101 57.7704C117.408 57.9236 117.742 58.0125 118.083 58.0318C118.425 58.051 118.767 58.0001 119.088 57.8822C119.409 57.7643 119.703 57.5819 119.952 57.3461C120.2 57.1103 120.398 56.8261 120.534 56.5109C121.53 57.0343 122.388 57.5318 123.315 58.0451C123.287 58.0437 123.259 58.0427 123.231 58.0422C122.671 58.0461 122.128 58.2376 121.689 58.5862C121.249 58.9349 120.938 59.4209 120.805 59.967C120.673 60.5131 120.725 61.0881 120.955 61.6007C121.185 62.1134 121.579 62.5343 122.074 62.7968C122.57 63.0593 123.139 63.1482 123.69 63.0496C124.242 62.9509 124.745 62.6703 125.119 62.2522C125.494 61.8341 125.718 61.3025 125.758 60.7418C125.797 60.181 125.648 59.6232 125.335 59.1568C129.93 61.7666 133.551 64.0304 135.865 65.1723C135.801 65.5353 135.817 65.9079 135.912 66.2639C136.007 66.62 136.179 66.9509 136.415 67.2333C136.651 67.5157 136.945 67.7429 137.278 67.8987C137.611 68.0546 137.974 68.1354 138.342 68.1354C138.402 68.1354 138.456 68.1138 138.517 68.1095V73.1993C138.459 73.195 138.402 73.182 138.34 73.182H138.321C137.654 73.1845 137.016 73.4527 136.546 73.9277C136.076 74.4027 135.813 75.0455 135.816 75.7147C135.818 76.3839 136.086 77.0247 136.559 77.4962C137.032 77.9677 137.673 78.2311 138.34 78.2286C138.4 78.2286 138.458 78.2157 138.517 78.2113V83.2925C138.459 83.2882 138.402 83.2752 138.34 83.2752C137.673 83.2752 137.033 83.5411 136.562 84.0143C136.09 84.4875 135.825 85.1293 135.825 85.7986C135.825 86.4678 136.09 87.1096 136.562 87.5828C137.033 88.056 137.673 88.3219 138.34 88.3219C138.4 88.3219 138.458 88.3089 138.517 88.3046V102.31H88.3346C84.4543 95.0713 80.1572 88.182 74.2577 83.0979C75.2476 80.7115 75.6827 78.1302 75.5301 75.55C75.3775 72.9697 74.6411 70.4582 73.3768 68.2061C77.1464 62.7168 83.9829 54.8917 91.8211 46.2922ZM98.1014 52.9956C97.7881 52.9956 97.4777 53.0533 97.186 53.1686C96.9238 54.7022 96.8793 56.2654 97.0537 57.8115C97.3954 57.9691 97.768 58.0478 98.144 58.0419C98.52 58.0359 98.8899 57.9455 99.2265 57.7771C99.563 57.6088 99.8577 57.3669 100.089 57.0692C100.32 56.7715 100.481 56.4256 100.562 56.057C100.642 55.6883 100.638 55.3064 100.552 54.9392C100.466 54.572 100.298 54.2289 100.062 53.9351C99.8262 53.6414 99.5275 53.4045 99.1882 53.2419C98.8489 53.0793 98.4775 52.9951 98.1014 52.9956ZM108.161 52.9956C107.494 52.9956 106.855 53.2614 106.383 53.7346C105.911 54.2079 105.646 54.8497 105.646 55.5189C105.646 56.1881 105.911 56.8299 106.383 57.3031C106.855 57.7763 107.494 58.0422 108.161 58.0422C108.828 58.0422 109.468 57.7763 109.94 57.3031C110.411 56.8299 110.676 56.1881 110.676 55.5189C110.676 54.8497 110.411 54.2079 109.94 53.7346C109.468 53.2614 108.828 52.9956 108.161 52.9956ZM26.6049 57.7639L21.3981 66.8118L17.9044 72.8821L26.9225 78.1075L30.4176 72.0357L33.999 74.112L39.2058 65.0628L35.6244 62.9864L26.6049 57.7639ZM103.111 58.0422C102.781 58.0447 102.454 58.1125 102.15 58.2417C101.846 58.3709 101.57 58.5589 101.339 58.795C100.871 59.2719 100.611 59.9157 100.616 60.585C100.621 61.2542 100.891 61.8939 101.366 62.3635C101.841 62.8331 102.483 63.094 103.15 63.0888C103.817 63.0836 104.455 62.8128 104.923 62.336C105.391 61.8591 105.651 61.2153 105.646 60.546C105.641 59.8768 105.371 59.237 104.895 58.7675C104.42 58.2979 103.778 58.037 103.111 58.0422ZM113.171 58.0422C112.841 58.0447 112.515 58.1125 112.21 58.2417C111.906 58.3709 111.63 58.5589 111.399 58.795C110.931 59.2719 110.671 59.9157 110.676 60.585C110.681 61.2542 110.951 61.8939 111.426 62.3635C111.901 62.8331 112.543 63.094 113.21 63.0888C113.877 63.0836 114.515 62.8128 114.983 62.336C115.451 61.8591 115.711 61.2153 115.706 60.546C115.701 59.8768 115.431 59.237 114.955 58.7675C114.48 58.2979 113.838 58.037 113.171 58.0422ZM108.141 63.0888C107.811 63.0914 107.485 63.1592 107.18 63.2883C106.876 63.4175 106.6 63.6055 106.369 63.8416C106.137 64.0777 105.954 64.3573 105.83 64.6645C105.706 64.9716 105.643 65.3002 105.646 65.6316C105.648 65.9629 105.716 66.2906 105.845 66.5957C105.973 66.9009 106.161 67.1776 106.396 67.4101C106.631 67.6426 106.91 67.8263 107.216 67.9508C107.522 68.0752 107.85 68.138 108.18 68.1354C108.847 68.1302 109.485 67.8595 109.953 67.3826C110.421 66.9057 110.681 66.2619 110.676 65.5926C110.671 64.9234 110.401 64.2837 109.925 63.8141C109.45 63.3445 108.808 63.0836 108.141 63.0888ZM118.201 63.0888C117.871 63.0914 117.545 63.1592 117.24 63.2883C116.936 63.4175 116.66 63.6055 116.429 63.8416C116.197 64.0777 116.014 64.3573 115.89 64.6645C115.766 64.9716 115.703 65.3002 115.706 65.6316C115.708 65.9629 115.776 66.2906 115.905 66.5957C116.033 66.9009 116.221 67.1776 116.456 67.4101C116.691 67.6426 116.97 67.8263 117.276 67.9508C117.582 68.0752 117.91 68.138 118.24 68.1354C118.907 68.1302 119.545 67.8595 120.013 67.3826C120.481 66.9057 120.741 66.2619 120.736 65.5926C120.731 64.9234 120.461 64.2837 119.985 63.8141C119.51 63.3445 118.868 63.0836 118.201 63.0888ZM128.261 63.0888C127.931 63.0914 127.605 63.1592 127.3 63.2883C126.996 63.4175 126.72 63.6055 126.489 63.8416C126.257 64.0777 126.074 64.3573 125.95 64.6645C125.826 64.9716 125.763 65.3002 125.766 65.6316C125.768 65.9629 125.836 66.2906 125.965 66.5957C126.093 66.9009 126.281 67.1776 126.516 67.4101C126.751 67.6426 127.03 67.8263 127.336 67.9508C127.642 68.0752 127.97 68.138 128.3 68.1354C128.967 68.1302 129.605 67.8595 130.073 67.3826C130.541 66.9057 130.801 66.2619 130.796 65.5926C130.791 64.9234 130.521 64.2837 130.045 63.8141C129.57 63.3445 128.928 63.0836 128.261 63.0888ZM98.4938 63.1191C98.5125 63.1638 98.5239 63.207 98.5441 63.2517C98.5164 64.8762 98.4498 66.4998 98.3443 68.121C98.9519 68.0599 99.5166 67.7792 99.9331 67.3311C100.35 66.883 100.589 66.2982 100.608 65.6859C100.626 65.0735 100.421 64.4753 100.033 64.003C99.6436 63.5307 99.0966 63.2165 98.4938 63.1191ZM58.3658 67.2371C57.1442 67.2316 55.9337 67.4689 54.8041 67.9355C53.6745 68.402 52.6483 69.0885 51.7847 69.9552C50.921 70.822 50.2371 71.8518 49.7725 72.9853C49.3078 74.1188 49.0716 75.3334 49.0775 76.5589C49.0716 77.7844 49.3078 78.9988 49.7725 80.1321C50.2372 81.2654 50.9212 82.2951 51.7848 83.1616C52.6485 84.0281 53.6748 84.7143 54.8043 85.1805C55.9339 85.6468 57.1444 85.8838 58.3658 85.8779C59.5873 85.8838 60.7979 85.6468 61.9277 85.1806C63.0574 84.7144 64.0839 84.0283 64.9478 83.1618C65.8117 82.2953 66.4959 81.2656 66.9609 80.1323C67.4259 78.999 67.6625 77.7845 67.6569 76.5589C67.6626 75.3332 67.4262 74.1184 66.9613 72.9849C66.4964 71.8513 65.8122 70.8214 64.9483 69.9546C64.0844 69.0879 63.0579 68.4015 61.9281 67.935C60.7983 67.4686 59.5875 67.2314 58.3658 67.2371ZM103.111 68.1354C102.781 68.138 102.454 68.2058 102.15 68.3349C101.846 68.4641 101.57 68.6521 101.339 68.8882C101.107 69.1244 100.924 69.404 100.8 69.7111C100.676 70.0182 100.613 70.3468 100.616 70.6782C100.618 71.0096 100.686 71.3372 100.815 71.6423C100.943 71.9475 101.131 72.2242 101.366 72.4567C101.601 72.6892 101.88 72.8729 102.186 72.9974C102.492 73.1218 102.82 73.1846 103.15 73.182C103.817 73.1769 104.455 72.9061 104.923 72.4292C105.391 71.9523 105.651 71.3085 105.646 70.6393C105.641 69.97 105.371 69.3303 104.895 68.8607C104.42 68.3911 103.778 68.1302 103.111 68.1354ZM113.171 68.1354C112.841 68.138 112.515 68.2058 112.21 68.3349C111.906 68.4641 111.63 68.6521 111.399 68.8882C111.167 69.1244 110.984 69.404 110.86 69.7111C110.736 70.0182 110.673 70.3468 110.676 70.6782C110.678 71.0096 110.746 71.3372 110.875 71.6423C111.003 71.9475 111.191 72.2242 111.426 72.4567C111.661 72.6892 111.94 72.8729 112.246 72.9974C112.552 73.1218 112.88 73.1846 113.21 73.182C113.877 73.1769 114.515 72.9061 114.983 72.4292C115.451 71.9523 115.711 71.3085 115.706 70.6393C115.701 69.97 115.431 69.3303 114.955 68.8607C114.48 68.3911 113.838 68.1302 113.171 68.1354ZM123.231 68.1354C122.901 68.138 122.575 68.2058 122.27 68.3349C121.966 68.4641 121.69 68.6521 121.459 68.8882C121.227 69.1244 121.044 69.404 120.92 69.7111C120.796 70.0182 120.733 70.3468 120.736 70.6782C120.738 71.0096 120.806 71.3372 120.935 71.6423C121.063 71.9475 121.251 72.2242 121.486 72.4567C121.721 72.6892 122 72.8729 122.306 72.9974C122.612 73.1218 122.94 73.1846 123.27 73.182C123.937 73.1769 124.575 72.9061 125.043 72.4292C125.511 71.9523 125.771 71.3085 125.766 70.6393C125.761 69.97 125.491 69.3303 125.015 68.8607C124.54 68.3911 123.898 68.1302 123.231 68.1354ZM133.291 68.1354C132.961 68.138 132.635 68.2058 132.33 68.3349C132.026 68.4641 131.75 68.6521 131.519 68.8882C131.287 69.1244 131.104 69.404 130.98 69.7111C130.856 70.0182 130.793 70.3468 130.796 70.6782C130.798 71.0096 130.866 71.3372 130.995 71.6423C131.123 71.9475 131.311 72.2242 131.546 72.4567C131.781 72.6892 132.06 72.8729 132.366 72.9974C132.672 73.1218 133 73.1846 133.33 73.182C133.997 73.1769 134.635 72.9061 135.103 72.4292C135.571 71.9523 135.831 71.3085 135.826 70.6393C135.821 69.97 135.551 69.3303 135.075 68.8607C134.6 68.3911 133.958 68.1302 133.291 68.1354ZM58.3658 69.4C62.3654 69.4 65.5012 72.5462 65.5012 76.5589C65.5012 80.5717 62.3654 83.715 58.3658 83.715C54.3662 83.715 51.2332 80.5717 51.2332 76.5589C51.2332 72.5462 54.3662 69.4 58.3658 69.4ZM108.141 73.182C107.811 73.1846 107.485 73.2524 107.18 73.3815C106.876 73.5107 106.6 73.6987 106.369 73.9348C106.137 74.171 105.954 74.4506 105.83 74.7577C105.706 75.0648 105.643 75.3934 105.646 75.7248C105.648 76.0562 105.716 76.3838 105.845 76.6889C105.973 76.9941 106.161 77.2708 106.396 77.5033C106.631 77.7358 106.91 77.9196 107.216 78.044C107.522 78.1685 107.85 78.2312 108.18 78.2286C108.847 78.2235 109.485 77.9527 109.953 77.4758C110.421 76.9989 110.681 76.3551 110.676 75.6859C110.671 75.0166 110.401 74.3769 109.925 73.9073C109.45 73.4378 108.808 73.1769 108.141 73.182ZM118.201 73.182C117.871 73.1846 117.545 73.2524 117.24 73.3815C116.936 73.5107 116.66 73.6987 116.429 73.9348C116.197 74.171 116.014 74.4506 115.89 74.7577C115.766 75.0648 115.703 75.3934 115.706 75.7248C115.708 76.0562 115.776 76.3838 115.905 76.6889C116.033 76.9941 116.221 77.2708 116.456 77.5033C116.691 77.7358 116.97 77.9196 117.276 78.044C117.582 78.1685 117.91 78.2312 118.24 78.2286C118.907 78.2235 119.545 77.9527 120.013 77.4758C120.481 76.9989 120.741 76.3551 120.736 75.6859C120.731 75.0166 120.461 74.3769 119.985 73.9073C119.51 73.4378 118.868 73.1769 118.201 73.182ZM128.261 73.182C127.931 73.1846 127.605 73.2524 127.3 73.3815C126.996 73.5107 126.72 73.6987 126.489 73.9348C126.257 74.171 126.074 74.4506 125.95 74.7577C125.826 75.0648 125.763 75.3934 125.766 75.7248C125.768 76.0562 125.836 76.3838 125.965 76.6889C126.093 76.9941 126.281 77.2708 126.516 77.5033C126.751 77.7358 127.03 77.9196 127.336 78.044C127.642 78.1685 127.97 78.2312 128.3 78.2286C128.967 78.2235 129.605 77.9527 130.073 77.4758C130.541 76.9989 130.801 76.3551 130.796 75.6859C130.791 75.0166 130.521 74.3769 130.045 73.9073C129.57 73.4378 128.928 73.1769 128.261 73.182ZM98.5211 73.2152C98.843 74.0169 99.4667 74.6499 100.596 75.3982C100.531 74.8586 100.294 74.3546 99.9197 73.9613C99.5457 73.5679 99.0552 73.3063 98.5211 73.2152ZM113.171 78.2286C112.841 78.2312 112.515 78.299 112.21 78.4282C111.906 78.5573 111.63 78.7453 111.399 78.9815C111.167 79.2176 110.984 79.4972 110.86 79.8043C110.736 80.1114 110.673 80.44 110.676 80.7714C110.678 81.1028 110.746 81.4304 110.875 81.7355C111.003 82.0407 111.191 82.3175 111.426 82.55C111.661 82.7825 111.94 82.9662 112.246 83.0906C112.552 83.2151 112.88 83.2778 113.21 83.2752C113.877 83.2701 114.515 82.9993 114.983 82.5224C115.451 82.0456 115.711 81.4017 115.706 80.7325C115.701 80.0633 115.431 79.4235 114.955 78.9539C114.48 78.4844 113.838 78.2235 113.171 78.2286ZM123.231 78.2286C122.901 78.2312 122.575 78.299 122.27 78.4282C121.966 78.5573 121.69 78.7453 121.459 78.9815C121.227 79.2176 121.044 79.4972 120.92 79.8043C120.796 80.1114 120.733 80.44 120.736 80.7714C120.738 81.1028 120.806 81.4304 120.935 81.7355C121.063 82.0407 121.251 82.3175 121.486 82.55C121.721 82.7825 122 82.9662 122.306 83.0906C122.612 83.2151 122.94 83.2778 123.27 83.2752C123.937 83.2701 124.575 82.9993 125.043 82.5224C125.511 82.0456 125.771 81.4017 125.766 80.7325C125.761 80.0633 125.491 79.4235 125.015 78.9539C124.54 78.4844 123.898 78.2235 123.231 78.2286ZM133.291 78.2286C132.961 78.2312 132.635 78.299 132.33 78.4282C132.026 78.5573 131.75 78.7453 131.519 78.9815C131.287 79.2176 131.104 79.4972 130.98 79.8043C130.856 80.1114 130.793 80.44 130.796 80.7714C130.798 81.1028 130.866 81.4304 130.995 81.7355C131.123 82.0407 131.311 82.3175 131.546 82.55C131.781 82.7825 132.06 82.9662 132.366 83.0906C132.672 83.2151 133 83.2778 133.33 83.2752C133.997 83.2701 134.635 82.9993 135.103 82.5224C135.571 82.0456 135.831 81.4017 135.826 80.7325C135.821 80.0633 135.551 79.4235 135.075 78.9539C134.6 78.4844 133.958 78.2235 133.291 78.2286ZM95.0317 80.7851C90.3926 80.7851 86.5856 84.6061 86.5856 89.2591C86.5856 93.9135 90.394 97.7302 95.0317 97.7302C99.6693 97.7302 103.475 93.9135 103.475 89.2591C103.475 84.6061 99.6693 80.7851 95.0317 80.7851ZM118.219 83.2752C117.727 83.2752 117.246 83.4197 116.836 83.6909C116.425 83.9621 116.103 84.348 115.908 84.801C115.714 85.254 115.656 85.7542 115.742 86.2397C115.828 86.7253 116.054 87.175 116.392 87.5331L120.074 87.5029C120.404 87.1418 120.621 86.6924 120.701 86.2094C120.78 85.7263 120.718 85.2305 120.521 84.7824C120.325 84.3342 120.003 83.9532 119.594 83.6855C119.185 83.4179 118.707 83.2754 118.219 83.2752ZM128.279 83.2752C127.797 83.2756 127.326 83.4146 126.921 83.6757C126.516 83.9369 126.194 84.3092 125.993 84.7485C125.793 85.1878 125.723 85.6755 125.79 86.1538C125.858 86.6321 126.061 87.0808 126.376 87.4466L130.21 87.412C130.516 87.0436 130.711 86.5954 130.772 86.1199C130.833 85.6444 130.758 85.1612 130.555 84.727C130.353 84.2928 130.031 83.9255 129.628 83.6681C129.224 83.4108 128.757 83.2754 128.279 83.2752ZM95.0317 85.1108C95.5756 85.1067 96.115 85.2113 96.6183 85.4184C97.1216 85.6255 97.5788 85.9309 97.9633 86.317C98.3478 86.703 98.6519 87.162 98.858 87.6671C99.064 88.1722 99.1679 88.7133 99.1635 89.2591C99.1679 89.8047 99.064 90.3457 98.8579 90.8507C98.6519 91.3556 98.3477 91.8144 97.9631 92.2002C97.5786 92.586 97.1213 92.8912 96.6181 93.098C96.1148 93.3047 95.5755 93.4089 95.0317 93.4045C94.4877 93.4089 93.9483 93.3047 93.4449 93.098C92.9415 92.8913 92.484 92.5861 92.0993 92.2004C91.7145 91.8146 91.41 91.3559 91.2036 90.8509C90.9972 90.3459 90.893 89.8048 90.897 89.2591C90.8928 88.7131 90.9969 88.1718 91.2032 87.6666C91.4095 87.1614 91.7139 86.7024 92.0986 86.3164C92.4834 85.9303 92.9409 85.6249 93.4445 85.4179C93.948 85.211 94.4875 85.1066 95.0317 85.1108ZM67.8509 90.9072C70.9667 93.6929 73.8496 97.6941 76.6434 102.31H51.6874C52.9794 99.4561 54.2196 96.5536 55.3392 93.5199C56.325 93.6987 57.3325 93.8082 58.3658 93.8082C61.8624 93.8082 65.1247 92.734 67.8509 90.9072Z" fill="#FF5A30"/>
</svg>
