<svg width="16" height="13" viewBox="0 0 16 13" fill="none" xmlns="http://www.w3.org/2000/svg">
<path d="M13.5262 0.909698H2.3207C1.82555 0.910228 1.35084 1.10716 1.00071 1.45728C0.650587 1.80741 0.453655 2.28213 0.453125 2.77728V10.7812C0.453655 11.2763 0.650587 11.751 1.00071 12.1012C1.35084 12.4513 1.82555 12.6482 2.3207 12.6488H13.5262C14.0213 12.6482 14.496 12.4513 14.8462 12.1012C15.1963 11.751 15.3932 11.2763 15.3937 10.7812V2.77728C15.3932 2.28213 15.1963 1.80741 14.8462 1.45728C14.496 1.10716 14.0213 0.910228 13.5262 0.909698ZM13.0533 3.99887L8.25093 7.73403C8.15728 7.80683 8.04205 7.84635 7.92344 7.84635C7.80482 7.84635 7.68959 7.80683 7.59594 7.73403L2.7936 3.99887C2.73718 3.95626 2.68979 3.90287 2.65418 3.84178C2.61857 3.7807 2.59546 3.71315 2.58618 3.64305C2.57691 3.57296 2.58166 3.50172 2.60015 3.43348C2.61865 3.36524 2.65052 3.30135 2.69392 3.24553C2.73732 3.18971 2.79138 3.14308 2.85296 3.10833C2.91453 3.07359 2.9824 3.05143 3.05262 3.04314C3.12284 3.03485 3.194 3.04061 3.26198 3.06006C3.32995 3.07951 3.39339 3.11228 3.44859 3.15646L7.92344 6.63683L12.3983 3.15646C12.5102 3.07196 12.6508 3.0349 12.7898 3.05329C12.9289 3.07169 13.055 3.14406 13.1411 3.25475C13.2272 3.36545 13.2662 3.50557 13.2498 3.64482C13.2333 3.78407 13.1627 3.91126 13.0533 3.99887Z" fill="#FF5A30"/>
</svg>
