<svg width="16" height="16" viewBox="0 0 16 16" fill="none" xmlns="http://www.w3.org/2000/svg">
<path d="M15.385 12.2513C15.2518 13.2635 14.7547 14.1927 13.9865 14.8652C13.2183 15.5377 12.2316 15.9076 11.2106 15.9058C5.27904 15.9058 0.453132 11.0799 0.453132 5.14844C0.451302 4.12746 0.821191 3.14072 1.49371 2.37252C2.16624 1.60432 3.0954 1.10719 4.10767 0.973993C4.36365 0.942737 4.62287 0.995105 4.84664 1.12328C5.07041 1.25145 5.24672 1.44856 5.34926 1.68517L6.92702 5.20746V5.21642C7.00552 5.39755 7.03794 5.59529 7.02139 5.792C7.00483 5.98871 6.93981 6.17825 6.83214 6.34371C6.81869 6.36387 6.8045 6.38255 6.78956 6.40123L5.23421 8.24492C5.79375 9.38191 6.98304 10.5607 8.13499 11.1218L9.95329 9.57465C9.97115 9.55964 9.98985 9.54567 10.0093 9.53281C10.1746 9.42255 10.3648 9.35525 10.5627 9.33698C10.7606 9.31872 10.9599 9.35008 11.1426 9.42823L11.1523 9.43271L14.6716 11.0097C14.9087 11.1119 15.1062 11.288 15.2348 11.5118C15.3634 11.7356 15.4161 11.995 15.385 12.2513Z" fill="#FF5A30"/>
</svg>
