<svg width="29" height="30" viewBox="0 0 29 30" fill="none" xmlns="http://www.w3.org/2000/svg">
<path fill-rule="evenodd" clip-rule="evenodd" d="M26.4537 13.155C26.2848 14.3251 25.8846 15.4371 25.2914 16.4597C25.3359 16.7129 25.3587 16.9688 25.3587 17.2258C25.3587 18.1185 25.1 18.9728 24.6209 19.749C24.3817 20.1365 24.3202 20.5905 24.2965 20.8904C24.2694 21.2342 24.2785 21.6103 24.3031 21.9717C24.3306 22.377 24.3804 22.8026 24.4375 23.2041C23.9747 23.0692 23.4731 22.9336 22.9943 22.8256C22.5961 22.7358 22.1887 22.6592 21.8196 22.6211C21.4977 22.5879 21.0325 22.5621 20.6165 22.6966C19.7069 22.9906 18.706 23.1547 17.6512 23.1547C16.3968 23.1547 15.2447 22.932 14.2348 22.5452C13.9919 22.5562 13.7473 22.5618 13.501 22.5618C12.0726 22.5618 10.6979 22.3739 9.41162 22.0268C11.2815 24.1894 14.3641 25.5262 17.6512 25.5262C18.9353 25.5262 20.1678 25.329 21.3036 24.9667C21.3056 24.9668 21.3092 24.9668 21.3146 24.9666C21.3438 24.9661 21.4247 24.9645 21.5759 24.9801C21.8138 25.0047 22.1197 25.0594 22.4724 25.139C23.1749 25.2975 23.9642 25.5313 24.5793 25.7266C25.8838 26.1407 27.1478 25.0023 26.9147 23.6785C26.8143 23.1087 26.7101 22.4134 26.6692 21.811C26.6486 21.5081 26.6463 21.2594 26.6607 21.077C26.6667 21.0014 26.6743 20.954 26.6792 20.9288C27.3463 19.8237 27.7302 18.5654 27.7302 17.2258C27.7302 15.7157 27.2612 14.3367 26.4537 13.155Z" fill="#E15929"/>
<path fill-rule="evenodd" clip-rule="evenodd" d="M7.09444 7.38173C5.49608 8.604 4.60784 10.2085 4.60784 11.8898C4.60784 12.7282 4.8261 13.5356 5.23557 14.2865C5.39153 14.5725 5.43577 14.8675 5.45159 15.0672C5.46884 15.285 5.46024 15.5088 5.4413 15.7181C5.40339 16.1371 5.31294 16.6118 5.20446 17.0795C5.07755 17.6265 4.91495 18.2098 4.74994 18.7575C5.37633 18.5299 6.06094 18.2965 6.70997 18.1072C7.23452 17.9542 7.76424 17.8214 8.2357 17.7468C8.64184 17.6826 9.23119 17.6195 9.73859 17.795C10.8773 18.189 12.1512 18.4115 13.5011 18.4115C16.0471 18.4115 18.3082 17.621 19.9077 16.3979C21.5061 15.1756 22.3943 13.5711 22.3943 11.8898C22.3943 10.2085 21.5061 8.604 19.9077 7.38173C18.3082 6.15862 16.0471 5.36811 13.5011 5.36811C10.955 5.36811 8.69389 6.15862 7.09444 7.38173ZM5.65385 5.49789C7.70228 3.93145 10.4806 2.99658 13.5011 2.99658C16.5215 2.99658 19.2999 3.93145 21.3483 5.49789C23.3978 7.06517 24.7658 9.3144 24.7658 11.8898C24.7658 14.4652 23.3978 16.7145 21.3483 18.2817C19.2999 19.8482 16.5215 20.783 13.5011 20.783C11.9085 20.783 10.3873 20.5234 9.00616 20.051C9.00478 20.0549 8.89275 20.0439 8.60609 20.0892C8.27568 20.1415 7.85392 20.2438 7.37416 20.3838C6.41907 20.6625 5.34649 21.0567 4.52951 21.3746C3.11415 21.9254 1.67231 20.5661 2.14918 19.1182C2.40193 18.3507 2.70001 17.3809 2.89429 16.5435C2.99215 16.1217 3.05566 15.767 3.07943 15.5044C3.08767 15.4132 3.08981 15.3467 3.08933 15.3018C2.54354 14.2589 2.23632 13.1055 2.23632 11.8898C2.23632 9.3144 3.60434 7.06517 5.65385 5.49789ZM3.08542 15.2371C3.08554 15.237 3.08612 15.2402 3.08681 15.2471C3.08566 15.2407 3.08531 15.2373 3.08542 15.2371Z" fill="#E15929"/>
</svg>
