<svg width="18" height="27" viewBox="0 0 18 27" fill="none" xmlns="http://www.w3.org/2000/svg">
<path fill-rule="evenodd" clip-rule="evenodd" d="M4.92849 3.08955C3.94617 3.08955 3.14985 3.88587 3.14985 4.86819V22.8399C3.14985 23.8222 3.94617 24.6186 4.92849 24.6186H13.2288C14.2112 24.6186 15.0075 23.8222 15.0075 22.8399V4.86819C15.0075 3.88587 14.2112 3.08955 13.2288 3.08955H13.13L12.8412 3.78257C12.657 4.2244 12.2253 4.5122 11.7466 4.5122H6.4107C5.93203 4.5122 5.50031 4.2244 5.31618 3.78257L5.02736 3.08955H4.92849ZM0.77832 4.86819C0.77832 2.57611 2.63642 0.718018 4.92849 0.718018H13.2288C15.5209 0.718018 17.379 2.57611 17.379 4.86819V22.8399C17.379 25.132 15.5209 26.9901 13.2288 26.9901H4.92849C2.63642 26.9901 0.77832 25.132 0.77832 22.8399V4.86819Z" fill="#E15929"/>
</svg>
