<svg width="31" height="32" viewBox="0 0 31 32" fill="none" xmlns="http://www.w3.org/2000/svg">
<path d="M29.0723 25.0552H19.7291C19.5033 24.4211 19.1393 23.8452 18.6634 23.3693C18.1874 22.8934 17.6116 22.5294 16.9775 22.3036V17.4959H27.5605C27.9614 17.4959 28.346 17.3367 28.6295 17.0531C28.913 16.7696 29.0723 16.3851 29.0723 15.9841C29.0723 15.5831 28.913 15.1986 28.6295 14.9151C28.346 14.6315 27.9614 14.4722 27.5605 14.4722H26.0486V5.40115C26.0486 4.19825 25.5708 3.04461 24.7202 2.19403C23.8696 1.34345 22.716 0.865601 21.5131 0.865601H9.41826C8.21536 0.865601 7.06173 1.34345 6.21115 2.19403C5.36057 3.04461 4.88272 4.19825 4.88272 5.40115V14.4722H3.37087C2.9699 14.4722 2.58535 14.6315 2.30183 14.9151C2.0183 15.1986 1.85902 15.5831 1.85902 15.9841C1.85902 16.3851 2.0183 16.7696 2.30183 17.0531C2.58535 17.3367 2.9699 17.4959 3.37087 17.4959H13.9538V22.3036C13.3197 22.5294 12.7439 22.8934 12.2679 23.3693C11.792 23.8452 11.428 24.4211 11.2022 25.0552H1.85902C1.45805 25.0552 1.0735 25.2145 0.789978 25.498C0.506452 25.7815 0.347168 26.1661 0.347168 26.567C0.347168 26.968 0.506452 27.3525 0.789978 27.6361C1.0735 27.9196 1.45805 28.0789 1.85902 28.0789H11.2022C11.52 28.9545 12.0997 29.711 12.8625 30.2456C13.6253 30.7802 14.5342 31.067 15.4657 31.067C16.3971 31.067 17.306 30.7802 18.0688 30.2456C18.8316 29.711 19.4113 28.9545 19.7291 28.0789H29.0723C29.4733 28.0789 29.8578 27.9196 30.1413 27.6361C30.4249 27.3525 30.5841 26.968 30.5841 26.567C30.5841 26.1661 30.4249 25.7815 30.1413 25.498C29.8578 25.2145 29.4733 25.0552 29.0723 25.0552ZM7.90641 14.4722V5.40115C7.90641 5.00018 8.0657 4.61564 8.34922 4.33211C8.63275 4.04858 9.01729 3.8893 9.41826 3.8893H21.5131C21.914 3.8893 22.2986 4.04858 22.5821 4.33211C22.8656 4.61564 23.0249 5.00018 23.0249 5.40115V14.4722H7.90641ZM15.4657 28.0789C15.1666 28.0789 14.8743 27.9902 14.6257 27.8241C14.3771 27.658 14.1833 27.4218 14.0689 27.1456C13.9545 26.8693 13.9245 26.5654 13.9829 26.2721C14.0412 25.9788 14.1852 25.7094 14.3966 25.498C14.6081 25.2866 14.8774 25.1426 15.1707 25.0842C15.464 25.0259 15.768 25.0558 16.0442 25.1703C16.3205 25.2847 16.5566 25.4785 16.7227 25.7271C16.8888 25.9757 16.9775 26.268 16.9775 26.567C16.9775 26.968 16.8182 27.3525 16.5347 27.6361C16.2512 27.9196 15.8666 28.0789 15.4657 28.0789Z" fill="#E15929"/>
</svg>
