<svg width="29" height="29" viewBox="0 0 29 29" fill="none" xmlns="http://www.w3.org/2000/svg">
<path fill-rule="evenodd" clip-rule="evenodd" d="M13.1811 0.974487C11.3335 0.974487 9.56154 1.70844 8.25509 3.01489C6.94865 4.32133 6.21469 6.09326 6.21469 7.94085C6.21469 9.78844 6.94865 11.5604 8.25509 12.8668C9.56154 14.1733 11.3335 14.9072 13.1811 14.9072C15.0286 14.9072 16.8006 14.1733 18.107 12.8668C19.4135 11.5604 20.1474 9.78844 20.1474 7.94085C20.1474 6.09326 19.4135 4.32133 18.107 3.01489C16.8006 1.70844 15.0286 0.974487 13.1811 0.974487ZM13.1811 16.3005C9.84417 16.3005 6.80683 17.2674 4.57342 18.6286C3.4588 19.3113 2.5058 20.1125 1.81752 20.9833C1.14039 21.8415 0.641602 22.867 0.641602 23.9635C0.641602 25.1408 1.21424 26.0687 2.03905 26.7305C2.81929 27.3575 3.84892 27.7727 4.94263 28.0625C7.14122 28.6435 10.0755 28.8399 13.1811 28.8399C13.5015 28.8399 13.822 28.8372 14.1354 28.833C14.3688 28.8298 14.5976 28.768 14.8008 28.6533C15.0041 28.5387 15.1753 28.3748 15.2987 28.1768C15.4222 27.9787 15.4939 27.7529 15.5073 27.5199C15.5207 27.2869 15.4754 27.0543 15.3755 26.8434C14.8459 25.7256 14.5723 24.5037 14.5743 23.2668C14.5743 21.5225 15.108 19.9063 16.0192 18.5673C16.1546 18.3684 16.2362 18.1377 16.256 17.8978C16.2757 17.6579 16.233 17.417 16.132 17.1986C16.031 16.9801 15.8751 16.7915 15.6795 16.6512C15.4839 16.5109 15.2553 16.4237 15.016 16.398C14.4169 16.3339 13.8038 16.3005 13.1811 16.3005ZM24.1378 17.6896C24.0151 17.4791 23.8394 17.3044 23.6282 17.1831C23.4169 17.0617 23.1776 16.9978 22.934 16.9978C22.6903 16.9978 22.451 17.0617 22.2398 17.1831C22.0285 17.3044 21.8528 17.4791 21.7302 17.6896L20.4623 19.8659L18.0018 20.3981C17.7635 20.4496 17.543 20.5628 17.3622 20.7262C17.1813 20.8896 17.0465 21.0976 16.9712 21.3295C16.8959 21.5613 16.8827 21.8088 16.933 22.0473C16.9833 22.2858 17.0953 22.5069 17.2578 22.6886L18.9353 24.5668L18.6817 27.0719C18.6571 27.3143 18.6966 27.5589 18.7961 27.7813C18.8956 28.0038 19.0517 28.1962 19.2488 28.3394C19.4459 28.4827 19.6771 28.5717 19.9194 28.5977C20.1617 28.6237 20.4065 28.5857 20.6295 28.4874L22.934 27.4704L25.2384 28.4874C25.4614 28.5857 25.7063 28.6237 25.9486 28.5977C26.1908 28.5717 26.4221 28.4827 26.6192 28.3394C26.8163 28.1962 26.9724 28.0038 27.0719 27.7813C27.1714 27.5589 27.2108 27.3143 27.1862 27.0719L26.9327 24.5654L28.6102 22.6886C28.7726 22.5069 28.8846 22.2858 28.9349 22.0473C28.9852 21.8088 28.972 21.5613 28.8967 21.3295C28.8214 21.0976 28.6866 20.8896 28.5058 20.7262C28.3249 20.5628 28.1044 20.4496 27.8661 20.3981L25.4056 19.8659L24.1378 17.6896Z" fill="#E15929"/>
</svg>
