<svg width="35" height="37" viewBox="0 0 35 37" fill="none" xmlns="http://www.w3.org/2000/svg">
<path d="M16.0458 3.28882L2.17236 7.9133V21.7867C2.17236 29.4496 8.38289 35.6602 16.0458 35.6602C23.7087 35.6602 29.9192 29.4496 29.9192 21.7867V7.9133L16.0458 3.28882ZM27.318 21.7867C27.318 28.0117 22.2708 33.0589 16.0458 33.0589C9.82082 33.0589 4.77363 28.0117 4.77363 21.7867V9.86425L16.0458 5.89009L27.318 9.86425V21.7867Z" fill="#E15929"/>
<path d="M11.2191 18.1414C11.0985 18.0203 10.9553 17.9242 10.7975 17.8586C10.6397 17.793 10.4705 17.7593 10.2996 17.7593C10.1287 17.7593 9.95955 17.793 9.80176 17.8586C9.64397 17.9242 9.50068 18.0203 9.38013 18.1414C9.25903 18.2619 9.16294 18.4052 9.09737 18.563C9.0318 18.7208 8.99805 18.89 8.99805 19.0609C8.99805 19.2317 9.0318 19.4009 9.09737 19.5587C9.16294 19.7165 9.25903 19.8598 9.38013 19.9803L14.0552 24.6554L14.1311 24.7313C14.2451 24.8455 14.3805 24.9361 14.5296 24.998C14.6787 25.0598 14.8385 25.0916 15 25.0916C15.1614 25.0916 15.3212 25.0598 15.4703 24.998C15.6194 24.9361 15.7548 24.8455 15.8689 24.7313L23.9436 16.6565C24.0579 16.5425 24.1485 16.407 24.2103 16.2579C24.2722 16.1088 24.304 15.949 24.304 15.7876C24.304 15.6262 24.2722 15.4664 24.2103 15.3173C24.1485 15.1682 24.0579 15.0327 23.9436 14.9187L23.8425 14.8175C23.7284 14.7033 23.593 14.6127 23.4439 14.5508C23.2948 14.489 23.135 14.4572 22.9736 14.4572C22.8122 14.4572 22.6523 14.489 22.5032 14.5508C22.3541 14.6127 22.2187 14.7033 22.1047 14.8175L14.9982 21.9204L11.2191 18.1414Z" fill="#E15929"/>
</svg>
