<svg width="34" height="23" viewBox="0 0 34 23" fill="none" xmlns="http://www.w3.org/2000/svg">
<path d="M0.63623 0.20166H33.3633V22.7015H0.63623V0.20166ZM31.3179 20.6561V2.2471H2.68167V20.6561H31.3179ZM8.818 14.0084C8.46644 14.0084 8.13619 13.9445 7.82724 13.8166C7.51829 13.6888 7.24663 13.5024 7.01226 13.2573C6.77788 13.0123 6.59678 12.7407 6.46894 12.4424C6.3411 12.1441 6.27185 11.8138 6.2612 11.4516C6.2612 11.1 6.32512 10.7698 6.45296 10.4608C6.5808 10.1519 6.76723 9.88023 7.01226 9.64585C7.25729 9.41148 7.52895 9.23037 7.82724 9.10253C8.12553 8.97469 8.45579 8.90545 8.818 8.89479C9.16956 8.89479 9.49981 8.95871 9.80876 9.08655C10.1177 9.21439 10.3894 9.40083 10.6237 9.64585C10.8581 9.89088 11.0392 10.1625 11.1671 10.4608C11.2949 10.7591 11.3642 11.0894 11.3748 11.4516C11.3748 11.8032 11.3109 12.1334 11.183 12.4424C11.0552 12.7513 10.8688 13.023 10.6237 13.2573C10.3787 13.4917 10.1071 13.6728 9.80876 13.8007C9.51047 13.9285 9.18021 13.9977 8.818 14.0084ZM16.9998 14.0084C16.6482 14.0084 16.318 13.9445 16.009 13.8166C15.7001 13.6888 15.4284 13.5024 15.194 13.2573C14.9597 13.0123 14.7785 12.7407 14.6507 12.4424C14.5229 12.1441 14.4536 11.8138 14.443 11.4516C14.443 11.1 14.5069 10.7698 14.6347 10.4608C14.7626 10.1519 14.949 9.88023 15.194 9.64585C15.4391 9.41148 15.7107 9.23037 16.009 9.10253C16.3073 8.97469 16.6376 8.90545 16.9998 8.89479C17.3513 8.89479 17.6816 8.95871 17.9905 9.08655C18.2995 9.21439 18.5711 9.40083 18.8055 9.64585C19.0399 9.89088 19.221 10.1625 19.3488 10.4608C19.4767 10.7591 19.5459 11.0894 19.5566 11.4516C19.5566 11.8032 19.4927 12.1334 19.3648 12.4424C19.237 12.7513 19.0505 13.023 18.8055 13.2573C18.5605 13.4917 18.2888 13.6728 17.9905 13.8007C17.6922 13.9285 17.362 13.9977 16.9998 14.0084ZM25.1815 14.0084C24.83 14.0084 24.4997 13.9445 24.1908 13.8166C23.8818 13.6888 23.6102 13.5024 23.3758 13.2573C23.1414 13.0123 22.9603 12.7407 22.8325 12.4424C22.7046 12.1441 22.6354 11.8138 22.6247 11.4516C22.6247 11.1 22.6887 10.7698 22.8165 10.4608C22.9443 10.1519 23.1308 9.88023 23.3758 9.64585C23.6208 9.41148 23.8925 9.23037 24.1908 9.10253C24.4891 8.97469 24.8193 8.90545 25.1815 8.89479C25.5331 8.89479 25.8634 8.95871 26.1723 9.08655C26.4812 9.21439 26.7529 9.40083 26.9873 9.64585C27.2217 9.89088 27.4028 10.1625 27.5306 10.4608C27.6584 10.7591 27.7277 11.0894 27.7383 11.4516C27.7383 11.8032 27.6744 12.1334 27.5466 12.4424C27.4187 12.7513 27.2323 13.023 26.9873 13.2573C26.7423 13.4917 26.4706 13.6728 26.1723 13.8007C25.874 13.9285 25.5438 13.9977 25.1815 14.0084Z" fill="#E15929"/>
</svg>
